<svg width="33" height="33" viewBox="0 0 33 33" fill="none" xmlns="http://www.w3.org/2000/svg">
<path d="M29.4643 0H3.53571C1.58371 0 0 1.58371 0 3.53571V29.4643C0 31.4163 1.58371 33 3.53571 33H29.4643C31.4163 33 33 31.4163 33 29.4643V3.53571C33 1.58371 31.4163 0 29.4643 0ZM25.8623 11.6973C25.877 11.9036 25.877 12.1172 25.877 12.3234C25.877 18.7098 21.0154 26.0685 12.1319 26.0685C9.39174 26.0685 6.85045 25.273 4.71429 23.9029C5.10469 23.9471 5.48036 23.9618 5.87813 23.9618C8.13951 23.9618 10.2167 23.1958 11.8741 21.8993C9.75268 21.8551 7.97009 20.4629 7.35871 18.5478C8.10268 18.6583 8.77299 18.6583 9.53906 18.4594C7.32924 18.01 5.67188 16.0654 5.67188 13.7156V13.6567C6.31272 14.0176 7.06406 14.2386 7.85223 14.2681C7.1896 13.8273 6.64639 13.2294 6.27108 12.5276C5.89577 11.8258 5.70004 11.042 5.70134 10.2462C5.70134 9.34755 5.93705 8.52254 6.35692 7.80804C8.73616 10.7397 12.3087 12.6549 16.3158 12.8612C15.6308 9.58326 18.0837 6.92411 21.0301 6.92411C22.4223 6.92411 23.6746 7.50603 24.5585 8.44888C25.6487 8.24263 26.6946 7.8375 27.6228 7.28504C27.2618 8.40469 26.5031 9.34754 25.5013 9.9442C26.4737 9.84107 27.4165 9.56853 28.2857 9.19286C27.6301 10.1578 26.8051 11.0123 25.8623 11.6973Z" fill="#FBFBFB"/>
</svg>
