<svg width="33" height="33" viewBox="0 0 33 33" fill="none" xmlns="http://www.w3.org/2000/svg">
<path d="M13.7377 19.2254C13.7377 20.6471 12.7065 21.0964 11.4395 21.0964H8.11741V17.1998H11.5058C12.8759 17.2071 13.7377 17.7743 13.7377 19.2254ZM13.1705 13.1632C13.1705 11.8594 12.1614 11.55 11.0417 11.55H8.12478V14.85H11.2701C12.3824 14.85 13.1705 14.3638 13.1705 13.1632ZM22.9158 14.8721C21.5679 14.8721 20.6692 15.7118 20.5808 17.0598H25.1625C25.0373 15.6971 24.3301 14.8721 22.9158 14.8721ZM33 3.53571V29.4643C33 31.4163 31.4163 33 29.4643 33H3.53571C1.58371 33 0 31.4163 0 29.4643V3.53571C0 1.58371 1.58371 0 3.53571 0H29.4643C31.4163 0 33 1.58371 33 3.53571ZM20.0136 11.2701H25.7444V9.8779H20.0136V11.2701ZM16.8462 19.3949C16.8462 17.6196 16.0065 16.0875 14.2681 15.594C15.535 14.99 16.198 14.2902 16.198 12.8685C16.198 10.0547 14.0987 9.36964 11.6752 9.36964H5.00893V23.5125H11.8667C14.4375 23.4978 16.8462 22.2676 16.8462 19.3949ZM27.9911 18.3047C27.9911 15.2772 26.2158 12.7507 23.0116 12.7507C19.8884 12.7507 17.7743 15.0931 17.7743 18.1721C17.7743 21.3616 19.7853 23.5493 23.0116 23.5493C25.4571 23.5493 27.0408 22.4518 27.8069 20.102H25.3246C25.052 20.9786 23.9545 21.4353 23.1 21.4353C21.45 21.4353 20.5882 20.4703 20.5882 18.835H27.969C27.9763 18.6656 27.9911 18.4815 27.9911 18.3047Z" fill="#FBFBFB"/>
</svg>
