<svg width="125" height="58" viewBox="0 0 125 58" fill="none" xmlns="http://www.w3.org/2000/svg">
<path d="M12.8424 55.6341C8.58095 55.6534 4.3389 55.7503 0.0774821 55.5566C0.0774821 55.3629 0.0581185 55.1692 0.0387484 54.9755C0.639221 54.9174 1.22032 54.8012 1.82079 54.8012C4.61008 54.7883 6.00472 53.3742 6.00472 50.5591C6.00472 35.4311 6.00472 20.3031 6.00472 5.19441C6.00472 2.30827 6.29528 2.46322 3.35103 2.46322C2.26631 2.46322 1.18158 2.46322 0.0968563 2.46322C0.0581161 2.30826 0.0387402 2.1533 0 1.97897C0.309921 1.86275 0.619849 1.63032 0.92977 1.63032C5.26867 1.59158 9.60757 1.63033 13.9465 1.57221C15.0118 1.57221 15.5929 1.92088 16.0772 2.90875C21.2877 13.7366 26.537 24.5645 31.7863 35.373C31.98 35.7798 32.2124 36.1865 32.5611 36.8451C32.9485 36.264 33.2972 35.896 33.5102 35.4505C38.7402 24.6807 43.9701 13.9109 49.1613 3.10244C49.7036 1.99834 50.3234 1.53346 51.5631 1.55283C54.7979 1.63031 58.0327 1.55283 61.2482 1.59157C61.8099 1.59157 62.3523 1.72717 62.914 1.80465C62.914 1.97898 62.914 2.17268 62.914 2.34701C62.1005 2.38575 61.2869 2.44386 60.4927 2.44386C58.6138 2.4826 58.5945 2.46324 58.5945 4.26465C58.5945 20.3031 58.5945 36.3609 58.5945 52.3993C58.5945 54.8593 58.6332 54.8399 61.0545 54.8012C61.6937 54.8012 62.3329 54.8787 62.9721 55.2273C57.1223 55.7116 51.292 55.6728 45.4616 55.5372C45.4616 55.3435 45.4422 55.1498 45.4228 54.9561C46.0233 54.898 46.6044 54.8012 47.2049 54.8012C50.0135 54.8205 50.0329 54.8399 50.0329 51.9731C50.0329 42.1138 50.0329 32.235 50.0136 22.3757C50.0136 16.9908 50.0136 11.5865 50.0136 6.20166C50.0136 5.71741 49.9361 5.25252 49.9167 4.76827L49.5487 4.6908C49.2775 5.17505 48.9675 5.65929 48.7157 6.16291C42.556 18.9472 36.3964 31.712 30.2367 44.4963C30.1398 44.7094 30.0817 44.9612 29.9074 45.0968C29.4425 45.5229 28.9389 46.2202 28.4353 46.2202C27.951 46.2202 27.2343 45.6198 26.9825 45.1161C25.0842 41.3196 23.2828 37.4843 21.4427 33.6684C16.9876 24.4095 12.5131 15.17 8.05796 5.91109C7.84489 5.46558 7.59308 5.03945 7.08946 4.59394C7.05071 5.05882 6.95387 5.50432 6.95387 5.9692C6.95387 21.6977 6.95386 37.4068 6.91512 53.1353C6.91512 54.4331 7.36063 54.8593 8.60032 54.7624C9.60756 54.6849 10.6342 54.7237 11.6414 54.7624C12.0482 54.7624 12.4743 54.898 12.8811 54.9755C12.8811 55.1886 12.8617 55.3823 12.8424 55.5954V55.6341Z" fill="#FBFBFB"/>
<path d="M124.395 34.947C124.801 37.6976 122.051 45.7943 120.443 47.5763C113.683 55.0919 105.373 58.5398 95.262 56.6609C89.4122 55.5762 84.5115 52.6319 80.6763 48.0025C77.5964 44.3028 75.3108 40.1963 74.3035 35.4506C72.8314 28.5743 73.3931 21.9303 76.5505 15.5382C79.824 8.93301 84.6665 3.93553 91.7172 1.59175C100.821 -1.41061 109.421 -0.267772 116.995 5.89191C119.087 7.59648 120.714 9.76593 120.656 12.7295C120.598 16.0225 118.332 18.3856 115.039 18.5987C111.63 18.8311 108.802 16.7198 108.298 13.5431C107.775 10.2695 109.596 7.30593 112.656 6.47302C113.257 6.29869 113.877 6.18247 114.942 5.93066C114.167 5.31082 113.741 4.90404 113.257 4.59412C104.85 -0.8295 92.6857 -0.0546899 84.9764 6.35681C84.0854 7.11224 83.698 7.88703 83.698 9.06861C83.7368 22.0659 83.7368 35.0826 83.698 48.0799C83.698 49.3003 84.1048 50.1332 85.0152 50.9273C91.7172 56.7577 103.068 58.0168 110.894 53.6198C115.097 51.2566 114.651 38.821 106.903 34.947" fill="#FBFBFB"/>
</svg>
