<svg width="313" height="304" viewBox="0 0 313 304" fill="none" xmlns="http://www.w3.org/2000/svg">
<rect width="313" height="304" rx="48" fill="#4C021C"/>
<path d="M53.053 153.641C53.053 138.427 52.9502 123.193 53.053 107.98C53.1352 95.5627 58.5627 90.3614 71.124 90.3408C87.7147 90.3408 104.305 90.238 120.896 90.4025C124.761 90.4436 126.735 89.7035 127.701 85.3656C130.641 72.1876 128.585 73.1127 143.202 73.1127C153.749 73.1127 164.295 73.3594 174.821 73.0099C180.269 72.8249 182.51 75.2302 183.538 80.1643C185.656 90.3202 185.779 90.3202 195.976 90.3202C211.395 90.3202 226.814 90.2791 242.233 90.3202C253.252 90.3613 259.05 95.7683 259.091 106.767C259.235 138.386 259.235 169.985 259.091 201.604C259.05 211.883 252.882 217.701 242.418 217.804C228.952 217.927 215.466 217.681 202.02 217.968C198.916 218.03 195.544 219.058 192.831 220.6C168.304 234.456 143.922 234.477 119.375 220.6C116.661 219.058 113.269 218.03 110.165 217.968C96.9044 217.681 83.6236 217.927 70.3427 217.824C58.9327 217.742 53.1146 211.924 53.053 200.453C52.9502 184.849 53.0324 169.224 53.0118 153.62L53.053 153.641ZM57.2469 126.873C57.2469 151.955 57.2264 175.947 57.2469 199.939C57.2469 209.478 61.1942 213.343 70.8567 213.363C84.5281 213.404 98.179 213.24 111.85 213.466C114.585 213.507 117.648 214.391 119.992 215.789C143.984 230.16 167.873 230.262 191.947 215.974C194.475 214.473 197.703 213.528 200.622 213.466C214.088 213.199 227.554 213.363 241.02 213.363C251.114 213.363 254.938 209.622 254.959 199.692C255 177.242 254.979 154.812 254.959 132.363C254.959 130.677 254.712 129.011 254.527 126.832C251.937 126.832 249.819 126.832 247.722 126.832C236.785 126.832 225.848 126.956 214.931 126.75C212.855 126.709 210.799 125.331 208.743 124.571C208.949 123.79 209.134 123.029 209.339 122.248H254.979C254.979 116.902 255.02 112.441 254.979 107.98C254.876 98.5231 251.217 94.8226 241.842 94.802C226.608 94.7609 211.395 94.802 196.161 94.802C182.736 94.802 182.51 94.8637 179.303 81.9118C178.357 78.0879 176.569 77.4506 173.238 77.5122C164.069 77.6562 154.88 77.5534 145.71 77.5534C133.91 77.5534 133.622 77.4917 131.361 89.0251C130.435 93.6919 128.523 94.9459 124.001 94.8842C106.053 94.6581 88.0848 94.7609 70.1166 94.802C61.0914 94.8226 57.3908 98.5848 57.2469 107.672C57.1852 110.982 57.4731 114.333 57.1852 117.622C56.8358 121.631 58.6243 122.597 62.2838 122.556C74.0021 122.392 85.7 122.474 97.4184 122.515C99.392 122.515 101.345 122.782 103.298 122.926L103.524 125.167C101.16 125.722 98.8164 126.75 96.4521 126.771C83.6236 126.935 70.795 126.853 57.2264 126.853L57.2469 126.873Z" fill="#FC3264"/>
<path d="M223.093 84.0777C220.318 82.8442 215.055 86.3186 215.322 80.1099C215.528 75.2581 219.455 74.3535 223.607 74.3535C227.678 74.3535 231.317 75.7926 231.379 80.1099C231.461 86.5036 225.931 82.762 223.093 84.0777Z" fill="#FC3264"/>
<path d="M89.2569 77.7192C90.6138 77.7192 92.1557 77.3286 93.3069 77.822C94.7666 78.4387 95.9179 79.7956 97.1925 80.8235C96.0001 82.1599 94.9927 84.3596 93.5948 84.668C90.8193 85.2847 87.715 85.2848 84.919 84.7091C83.4183 84.4007 82.2464 82.386 80.9307 81.1319C82.3492 80.0012 83.6444 78.5621 85.248 77.822C86.3787 77.308 87.9206 77.7192 89.2774 77.7192H89.2569Z" fill="#FC3264"/>
<path d="M156.032 99.1806C189.686 98.9956 217.605 126.667 217.769 160.404C217.933 194.572 190.447 222.553 156.525 222.717C122.459 222.882 94.6437 195.292 94.4792 161.206C94.3148 127.14 121.863 99.3862 156.032 99.2012V99.1806ZM208.744 161.247C208.847 131.972 185.286 108.185 156.176 108.165C127.229 108.165 103.792 131.499 103.546 160.569C103.299 189.782 126.838 213.527 156.093 213.527C185.101 213.527 208.662 190.152 208.764 161.226L208.744 161.247Z" fill="#FC3264"/>
<path d="M224.717 117.457C222.188 117.457 219.66 117.457 217.131 117.457C209.586 117.416 209.36 117.004 209.442 109.542C209.483 105.862 210.675 104.217 214.541 104.32C221.345 104.505 228.171 104.546 234.996 104.32C240.609 104.114 239.848 107.835 240.033 111.371C240.218 115.277 239.416 117.868 234.688 117.518C231.399 117.272 228.068 117.477 224.758 117.477L224.717 117.457Z" fill="#FC3264"/>
<path d="M156.401 80.7608C158.354 80.7608 160.287 80.8431 162.219 80.7608C165.899 80.5552 168.551 80.8636 168.572 85.8388C168.593 90.6906 166.598 91.8625 162.261 91.5952C157.614 91.3074 152.927 91.369 148.281 91.5746C143.902 91.7596 143.84 89.0665 143.778 85.8799C143.717 82.6728 144.457 80.5552 148.24 80.7608C150.953 80.9047 153.688 80.7814 156.401 80.7814V80.7608Z" fill="#FC3264"/>
<path d="M97.8305 101.627C100.236 105.43 102.765 107.651 102.6 109.665C102.456 111.516 99.4341 113.14 97.6866 114.867C95.8774 112.996 93.0404 111.31 92.6086 109.151C92.2797 107.568 95.1168 105.348 97.8511 101.627H97.8305Z" fill="#FC3264"/>
<path d="M199.245 160.981C199.245 184.931 179.982 204.154 156.052 204.133C132.183 204.133 112.981 184.808 113.002 160.837C113.043 137.009 132.533 117.458 156.196 117.54C179.961 117.623 199.266 137.112 199.245 160.981ZM170.319 153.867C177.453 154.258 183.333 149.159 183.723 142.252C184.135 134.851 179.036 128.848 171.861 128.354C164.974 127.861 158.539 133.679 158.272 140.669C158.005 147.597 163.37 153.497 170.299 153.888L170.319 153.867ZM158.642 136.475C149.206 133.453 138.125 139.456 133.129 149.262C127.29 160.693 130.621 174.117 141.291 182.012C151.076 189.269 165.57 187.974 174.452 179.072C181.791 171.692 184.135 159.562 179.509 152.983C178.646 174.734 171.758 184.232 156.607 184.541C143.984 184.808 133.355 175.166 132.265 162.461C131.135 149.201 140.633 139.476 158.642 136.475ZM156.257 167.847C158.498 164.619 161.109 162.44 160.76 161.022C160.246 159.048 157.532 157.63 155.743 155.985C154.222 157.691 151.611 159.315 151.488 161.124C151.364 162.81 153.872 164.681 156.257 167.847Z" fill="#FC3264"/>
</svg>
