<svg width="949" height="564" viewBox="0 0 949 564" fill="none" xmlns="http://www.w3.org/2000/svg">
<rect x="0.5" y="46.165" width="892.481" height="467.275" stroke="black" stroke-dasharray="4 4"/>
<line x1="192.039" y1="45.665" x2="192.039" y2="513.94" stroke="black" stroke-dasharray="4 4"/>
<line x1="174.367" y1="45.665" x2="174.367" y2="513.94" stroke="black" stroke-dasharray="4 4"/>
<line x1="227.381" y1="45.665" x2="227.381" y2="513.94" stroke="black" stroke-dasharray="4 4"/>
<line x1="209.709" y1="45.665" x2="209.709" y2="513.94" stroke="black" stroke-dasharray="4 4"/>
<line x1="0.5" y1="45.665" x2="0.50002" y2="513.94" stroke="black" stroke-dasharray="4 4"/>
<line x1="0.21875" y1="116.626" x2="894.065" y2="116.626" stroke="black" stroke-dasharray="4 4"/>
<line x1="0.21875" y1="133.09" x2="894.065" y2="133.09" stroke="black" stroke-dasharray="4 4"/>
<line x1="0.21875" y1="149.56" x2="894.065" y2="149.56" stroke="black" stroke-dasharray="4 4"/>
<line x1="0.21875" y1="166.029" x2="894.065" y2="166.029" stroke="black" stroke-dasharray="4 4"/>
<line x1="0.21875" y1="182.501" x2="894.065" y2="182.501" stroke="black" stroke-dasharray="4 4"/>
<line x1="0.21875" y1="198.969" x2="894.065" y2="198.969" stroke="black" stroke-dasharray="4 4"/>
<line x1="0.21875" y1="477.95" x2="894.065" y2="477.95" stroke="black" stroke-dasharray="4 4"/>
<line x1="0.21875" y1="495.693" x2="894.065" y2="495.693" stroke="black" stroke-dasharray="4 4"/>
<line x1="0.21875" y1="513.446" x2="894.065" y2="513.446" stroke="black" stroke-dasharray="4 4"/>
<path fill-rule="evenodd" clip-rule="evenodd" d="M83.2646 514.524L-0.000650175 514.524L-0.000681394 46.2501L36.6068 46.2501L36.6068 477.6L46.6572 477.6L46.6572 46.2502L83.2646 46.2502L83.2646 514.524Z" fill="black"/>
<path fill-rule="evenodd" clip-rule="evenodd" d="M127.94 152.44L127.94 514.524H90.9287L90.9288 115.515H228.636V152.44H127.94Z" fill="black"/>
<path fill-rule="evenodd" clip-rule="evenodd" d="M137.659 514.524L137.659 162.565H228.63L228.63 199.489H175.164L175.164 477.6H228.63V514.524H137.659Z" fill="black"/>
<path d="M280.942 307.07C280.942 311.152 280.247 314.851 278.856 318.168C277.465 321.42 275.568 324.195 273.165 326.491C270.762 328.787 267.917 330.573 264.629 331.848C261.341 333.06 257.768 333.666 253.911 333.666C250.054 333.666 246.482 333.06 243.193 331.848C239.905 330.573 237.028 328.787 234.562 326.491C232.16 324.195 230.263 321.42 228.872 318.168C227.544 314.851 226.88 311.152 226.88 307.07V264.211H238.831V306.687C238.831 308.346 239.083 310.1 239.589 311.949C240.095 313.735 240.917 315.393 242.055 316.924C243.257 318.455 244.806 319.73 246.703 320.751C248.663 321.707 251.066 322.186 253.911 322.186C256.757 322.186 259.128 321.707 261.025 320.751C262.985 319.73 264.534 318.455 265.672 316.924C266.874 315.393 267.727 313.735 268.233 311.949C268.739 310.1 268.992 308.346 268.992 306.687V264.211H280.942V307.07Z" fill="black"/>
<path d="M294.57 286.023H305.382V293.39H305.572C306.647 291.094 308.291 289.116 310.504 287.458C312.717 285.736 315.721 284.875 319.515 284.875C322.55 284.875 325.111 285.385 327.197 286.406C329.347 287.426 331.086 288.766 332.414 290.424C333.742 292.082 334.69 293.995 335.259 296.164C335.828 298.332 336.113 300.597 336.113 302.956V331.944H324.731V308.697C324.731 307.421 324.668 306.018 324.541 304.487C324.415 302.893 324.067 301.426 323.498 300.086C322.992 298.683 322.17 297.535 321.032 296.642C319.894 295.686 318.345 295.207 316.385 295.207C314.488 295.207 312.875 295.526 311.547 296.164C310.283 296.802 309.208 297.663 308.323 298.747C307.501 299.831 306.9 301.075 306.521 302.478C306.141 303.881 305.952 305.348 305.952 306.879V331.944H294.57V286.023Z" fill="black"/>
<path d="M349.222 286.023H360.604V331.944H349.222V286.023ZM347.61 270.429C347.61 268.58 348.274 266.985 349.602 265.646C350.993 264.243 352.732 263.541 354.818 263.541C356.905 263.541 358.644 264.211 360.035 265.55C361.489 266.826 362.216 268.452 362.216 270.429C362.216 272.406 361.489 274.065 360.035 275.404C358.644 276.679 356.905 277.317 354.818 277.317C352.732 277.317 350.993 276.648 349.602 275.308C348.274 273.905 347.61 272.279 347.61 270.429Z" fill="black"/>
<path d="M367.505 286.023H379.93L392.071 318.168H392.26L404.496 286.023H416.162L398.236 331.944H386.095L367.505 286.023Z" fill="black"/>
<path d="M431.959 313.002C432.338 316.446 433.666 319.124 435.942 321.038C438.219 322.951 440.969 323.908 444.194 323.908C447.04 323.908 449.411 323.334 451.308 322.186C453.268 320.974 454.975 319.475 456.429 317.689L464.586 323.908C461.93 327.224 458.959 329.584 455.671 330.987C452.383 332.39 448.936 333.092 445.332 333.092C441.918 333.092 438.693 332.518 435.658 331.37C432.623 330.222 429.999 328.596 427.786 326.491C425.573 324.386 423.802 321.867 422.474 318.933C421.21 315.935 420.577 312.619 420.577 308.984C420.577 305.348 421.21 302.063 422.474 299.13C423.802 296.132 425.573 293.581 427.786 291.476C429.999 289.371 432.623 287.745 435.658 286.597C438.693 285.449 441.918 284.875 445.332 284.875C448.494 284.875 451.371 285.449 453.963 286.597C456.619 287.681 458.864 289.276 460.697 291.381C462.594 293.485 464.049 296.1 465.06 299.225C466.135 302.287 466.673 305.826 466.673 309.845V313.002H431.959ZM455.291 304.391C455.228 301.011 454.185 298.364 452.161 296.451C450.138 294.474 447.324 293.485 443.72 293.485C440.305 293.485 437.586 294.474 435.563 296.451C433.603 298.428 432.402 301.075 431.959 304.391H455.291Z" fill="black"/>
<path d="M477.316 286.023H488.698V293.294H488.888C490.152 290.615 491.954 288.542 494.294 287.075C496.633 285.609 499.321 284.875 502.356 284.875C503.051 284.875 503.715 284.939 504.348 285.066C505.043 285.194 505.739 285.353 506.434 285.545V296.642C505.486 296.387 504.537 296.196 503.589 296.068C502.704 295.877 501.818 295.781 500.933 295.781C498.277 295.781 496.128 296.292 494.484 297.312C492.903 298.269 491.67 299.385 490.785 300.66C489.963 301.936 489.393 303.212 489.077 304.487C488.824 305.763 488.698 306.719 488.698 307.357V331.944H477.316V286.023Z" fill="black"/>
<path d="M538.461 298.747C536.248 295.622 533.276 294.059 529.546 294.059C528.028 294.059 526.542 294.442 525.088 295.207C523.634 295.973 522.906 297.216 522.906 298.938C522.906 300.341 523.507 301.362 524.708 302C525.91 302.638 527.427 303.18 529.261 303.626C531.095 304.073 533.055 304.551 535.142 305.061C537.291 305.508 539.283 306.241 541.117 307.261C542.951 308.218 544.468 309.558 545.67 311.28C546.871 313.002 547.472 315.361 547.472 318.359C547.472 321.102 546.871 323.429 545.67 325.343C544.531 327.192 543.014 328.691 541.117 329.839C539.283 330.987 537.197 331.816 534.857 332.327C532.518 332.837 530.178 333.092 527.838 333.092C524.297 333.092 521.041 332.582 518.069 331.561C515.097 330.541 512.442 328.691 510.102 326.012L517.69 318.837C519.144 320.496 520.693 321.867 522.337 322.951C524.045 323.972 526.1 324.482 528.502 324.482C529.324 324.482 530.178 324.386 531.063 324.195C531.948 324.003 532.77 323.685 533.529 323.238C534.288 322.792 534.889 322.25 535.331 321.612C535.837 320.91 536.09 320.113 536.09 319.22C536.09 317.626 535.489 316.446 534.288 315.68C533.087 314.915 531.569 314.309 529.735 313.863C527.902 313.352 525.91 312.906 523.76 312.523C521.673 312.077 519.713 311.407 517.88 310.514C516.046 309.558 514.528 308.25 513.327 306.592C512.126 304.934 511.525 302.638 511.525 299.704C511.525 297.153 512.031 294.952 513.042 293.103C514.117 291.189 515.508 289.627 517.216 288.415C518.923 287.203 520.883 286.31 523.096 285.736C525.309 285.162 527.554 284.875 529.83 284.875C532.865 284.875 535.869 285.417 538.841 286.501C541.812 287.522 544.215 289.308 546.049 291.859L538.461 298.747Z" fill="black"/>
<path d="M556.514 286.023H567.896V331.944H556.514V286.023ZM554.902 270.429C554.902 268.58 555.565 266.985 556.893 265.646C558.284 264.243 560.023 263.541 562.11 263.541C564.197 263.541 565.935 264.211 567.326 265.55C568.781 266.826 569.508 268.452 569.508 270.429C569.508 272.406 568.781 274.065 567.326 275.404C565.935 276.679 564.197 277.317 562.11 277.317C560.023 277.317 558.284 276.648 556.893 275.308C555.565 273.905 554.902 272.279 554.902 270.429Z" fill="black"/>
<path d="M575.651 295.781V286.023H585.041V272.725H596.422V286.023H608.942V295.781H596.422V315.872C596.422 318.168 596.833 319.985 597.655 321.325C598.54 322.664 600.248 323.334 602.777 323.334C603.789 323.334 604.895 323.238 606.096 323.047C607.298 322.792 608.246 322.409 608.942 321.899V331.561C607.74 332.135 606.255 332.518 604.484 332.709C602.777 332.964 601.259 333.092 599.931 333.092C596.896 333.092 594.399 332.741 592.439 332.04C590.542 331.402 589.024 330.413 587.886 329.074C586.811 327.671 586.052 325.949 585.61 323.908C585.23 321.867 585.041 319.507 585.041 316.828V295.781H575.651Z" fill="black"/>
<path d="M626.932 313.002C627.311 316.446 628.639 319.124 630.915 321.038C633.191 322.951 635.942 323.908 639.167 323.908C642.012 323.908 644.383 323.334 646.28 322.186C648.24 320.974 649.948 319.475 651.402 317.689L659.559 323.908C656.903 327.224 653.931 329.584 650.643 330.987C647.355 332.39 643.909 333.092 640.305 333.092C636.89 333.092 633.666 332.518 630.631 331.37C627.596 330.222 624.971 328.596 622.758 326.491C620.545 324.386 618.775 321.867 617.447 318.933C616.182 315.935 615.55 312.619 615.55 308.984C615.55 305.348 616.182 302.063 617.447 299.13C618.775 296.132 620.545 293.581 622.758 291.476C624.971 289.371 627.596 287.745 630.631 286.597C633.666 285.449 636.89 284.875 640.305 284.875C643.467 284.875 646.344 285.449 648.936 286.597C651.592 287.681 653.836 289.276 655.67 291.381C657.567 293.485 659.021 296.1 660.033 299.225C661.108 302.287 661.645 305.826 661.645 309.845V313.002H626.932ZM650.264 304.391C650.201 301.011 649.157 298.364 647.134 296.451C645.111 294.474 642.297 293.485 638.693 293.485C635.278 293.485 632.559 294.474 630.536 296.451C628.576 298.428 627.374 301.075 626.932 304.391H650.264ZM643.53 264.211H656.429L643.055 277.987H634.14L643.53 264.211Z" fill="black"/>
<path d="M227.164 344.774H270.509V355.68H239.115V373.474H268.707V384.38H239.115V412.507H227.164V344.774Z" fill="black"/>
<path d="M280.584 366.586H291.965V373.857H292.155C293.42 371.178 295.222 369.105 297.561 367.638C299.901 366.171 302.588 365.438 305.623 365.438C306.319 365.438 306.983 365.502 307.615 365.629C308.311 365.757 309.006 365.916 309.702 366.108V377.205C308.753 376.95 307.805 376.759 306.856 376.631C305.971 376.44 305.086 376.344 304.201 376.344C301.545 376.344 299.395 376.854 297.751 377.875C296.17 378.832 294.937 379.948 294.052 381.223C293.23 382.499 292.661 383.774 292.345 385.05C292.092 386.326 291.965 387.282 291.965 387.92V412.507H280.584V366.586Z" fill="black"/>
<path d="M345.902 406.193H345.617C343.973 408.808 341.887 410.721 339.358 411.933C336.828 413.081 334.046 413.655 331.011 413.655C328.924 413.655 326.869 413.368 324.846 412.794C322.886 412.22 321.115 411.359 319.535 410.211C318.017 409.063 316.784 407.628 315.836 405.906C314.887 404.184 314.413 402.175 314.413 399.879C314.413 397.391 314.856 395.286 315.741 393.564C316.626 391.779 317.796 390.312 319.25 389.164C320.768 387.952 322.506 386.995 324.467 386.294C326.427 385.592 328.45 385.082 330.537 384.763C332.687 384.38 334.837 384.157 336.986 384.093C339.136 383.966 341.16 383.902 343.057 383.902H345.902V382.658C345.902 379.788 344.922 377.652 342.962 376.248C341.002 374.782 338.504 374.048 335.469 374.048C333.066 374.048 330.821 374.495 328.735 375.387C326.648 376.217 324.846 377.365 323.328 378.832L317.353 372.804C319.882 370.189 322.823 368.308 326.174 367.16C329.588 366.012 333.098 365.438 336.702 365.438C339.927 365.438 342.646 365.821 344.859 366.586C347.072 367.288 348.905 368.212 350.36 369.36C351.814 370.508 352.921 371.848 353.679 373.378C354.501 374.845 355.07 376.344 355.387 377.875C355.766 379.406 355.987 380.904 356.051 382.371C356.114 383.774 356.145 385.018 356.145 386.102V412.507H345.902V406.193ZM345.238 391.938H342.867C341.286 391.938 339.516 392.002 337.555 392.129C335.595 392.257 333.73 392.576 331.96 393.086C330.252 393.533 328.798 394.234 327.597 395.191C326.395 396.084 325.794 397.359 325.794 399.018C325.794 400.102 326.016 401.027 326.458 401.792C326.964 402.494 327.597 403.099 328.355 403.61C329.114 404.12 329.968 404.503 330.916 404.758C331.865 404.949 332.813 405.045 333.762 405.045C337.682 405.045 340.559 404.12 342.393 402.27C344.29 400.357 345.238 397.774 345.238 394.521V391.938Z" fill="black"/>
<path d="M368.391 366.586H379.203V373.952H379.393C380.468 371.656 382.112 369.679 384.325 368.021C386.538 366.299 389.542 365.438 393.336 365.438C396.371 365.438 398.932 365.948 401.018 366.969C403.168 367.989 404.907 369.328 406.235 370.987C407.563 372.645 408.511 374.558 409.08 376.727C409.649 378.895 409.934 381.159 409.934 383.519V412.507H398.552V389.259C398.552 387.984 398.489 386.581 398.362 385.05C398.236 383.456 397.888 381.989 397.319 380.649C396.813 379.246 395.991 378.098 394.853 377.205C393.715 376.248 392.166 375.77 390.206 375.77C388.309 375.77 386.696 376.089 385.369 376.727C384.104 377.365 383.029 378.226 382.144 379.31C381.322 380.394 380.721 381.638 380.342 383.041C379.962 384.444 379.773 385.911 379.773 387.442V412.507H368.391V366.586Z" fill="black"/>
<path d="M453.963 380.362C452.635 378.959 451.244 377.843 449.79 377.014C448.336 376.185 446.85 375.77 445.332 375.77C443.246 375.77 441.38 376.153 439.736 376.918C438.092 377.684 436.67 378.704 435.468 379.98C434.33 381.255 433.445 382.722 432.813 384.38C432.243 386.039 431.959 387.761 431.959 389.546C431.959 391.332 432.243 393.054 432.813 394.712C433.445 396.371 434.33 397.838 435.468 399.113C436.67 400.389 438.092 401.409 439.736 402.175C441.38 402.94 443.246 403.323 445.332 403.323C447.103 403.323 448.747 402.972 450.264 402.27C451.782 401.505 453.078 400.421 454.153 399.018L461.741 407.245C460.603 408.393 459.275 409.382 457.757 410.211C456.303 411.04 454.817 411.71 453.299 412.22C451.782 412.73 450.328 413.081 448.936 413.272C447.545 413.527 446.344 413.655 445.332 413.655C441.918 413.655 438.693 413.081 435.658 411.933C432.623 410.785 429.999 409.158 427.786 407.054C425.573 404.949 423.802 402.43 422.474 399.496C421.21 396.498 420.577 393.182 420.577 389.546C420.577 385.911 421.21 382.626 422.474 379.693C423.802 376.695 425.573 374.144 427.786 372.039C429.999 369.934 432.623 368.308 435.658 367.16C438.693 366.012 441.918 365.438 445.332 365.438C448.241 365.438 451.15 366.012 454.058 367.16C457.03 368.244 459.623 369.998 461.836 372.422L453.963 380.362Z" fill="black"/>
<path d="M479.991 372.996H480.181C481.066 371.082 482.615 369.36 484.828 367.83C487.105 366.235 490.013 365.438 493.554 365.438C496.589 365.438 499.15 365.948 501.237 366.969C503.387 367.989 505.126 369.328 506.453 370.987C507.781 372.645 508.73 374.558 509.299 376.727C509.868 378.895 510.152 381.159 510.152 383.519V412.507H498.771V389.259C498.771 387.984 498.708 386.581 498.581 385.05C498.455 383.456 498.107 381.989 497.538 380.649C497.032 379.246 496.21 378.098 495.072 377.205C493.934 376.248 492.385 375.77 490.424 375.77C488.527 375.77 486.915 376.089 485.587 376.727C484.323 377.365 483.248 378.226 482.362 379.31C481.54 380.394 480.94 381.638 480.56 383.041C480.181 384.444 479.991 385.911 479.991 387.442V412.507H468.61V340.181H479.991V372.996Z" fill="black"/>
<path d="M532.178 393.564C532.557 397.009 533.885 399.687 536.161 401.601C538.438 403.514 541.188 404.471 544.413 404.471C547.258 404.471 549.629 403.897 551.526 402.749C553.487 401.537 555.194 400.038 556.648 398.252L564.805 404.471C562.149 407.787 559.177 410.147 555.889 411.55C552.601 412.953 549.155 413.655 545.551 413.655C542.137 413.655 538.912 413.081 535.877 411.933C532.842 410.785 530.217 409.158 528.004 407.054C525.791 404.949 524.021 402.43 522.693 399.496C521.428 396.498 520.796 393.182 520.796 389.546C520.796 385.911 521.428 382.626 522.693 379.693C524.021 376.695 525.791 374.144 528.004 372.039C530.217 369.934 532.842 368.308 535.877 367.16C538.912 366.012 542.137 365.438 545.551 365.438C548.713 365.438 551.59 366.012 554.182 367.16C556.838 368.244 559.082 369.839 560.916 371.943C562.813 374.048 564.267 376.663 565.279 379.788C566.354 382.85 566.892 386.389 566.892 390.407V393.564H532.178ZM555.51 384.954C555.447 381.574 554.403 378.927 552.38 377.014C550.357 375.037 547.543 374.048 543.939 374.048C540.524 374.048 537.805 375.037 535.782 377.014C533.822 378.991 532.62 381.638 532.178 384.954H555.51Z" fill="black"/>
<path d="M597.737 393.851H574.31V384.093H597.737V393.851Z" fill="black"/>
<path d="M654.591 360.655C652.125 357.976 649.722 356.19 647.383 355.297C645.107 354.404 642.799 353.958 640.459 353.958C636.981 353.958 633.82 354.596 630.974 355.871C628.192 357.083 625.789 358.805 623.766 361.037C621.743 363.206 620.162 365.757 619.024 368.691C617.949 371.625 617.411 374.782 617.411 378.162C617.411 381.797 617.949 385.146 619.024 388.207C620.162 391.268 621.743 393.915 623.766 396.148C625.789 398.38 628.192 400.134 630.974 401.409C633.82 402.685 636.981 403.323 640.459 403.323C643.178 403.323 645.802 402.685 648.331 401.409C650.924 400.07 653.327 397.965 655.54 395.095L665.404 402.175C662.369 406.384 658.67 409.445 654.307 411.359C649.944 413.272 645.296 414.229 640.364 414.229C635.179 414.229 630.405 413.4 626.042 411.741C621.743 410.019 618.012 407.628 614.851 404.566C611.752 401.441 609.318 397.71 607.547 393.373C605.777 389.036 604.892 384.221 604.892 378.927C604.892 373.506 605.777 368.595 607.547 364.194C609.318 359.73 611.752 355.935 614.851 352.81C618.012 349.685 621.743 347.293 626.042 345.635C630.405 343.913 635.179 343.052 640.364 343.052C644.917 343.052 649.122 343.881 652.979 345.539C656.899 347.133 660.535 349.876 663.886 353.766L654.591 360.655Z" fill="black"/>
<path d="M670.105 389.546C670.105 385.911 670.738 382.626 672.002 379.693C673.33 376.695 675.101 374.144 677.314 372.039C679.527 369.934 682.151 368.308 685.186 367.16C688.221 366.012 691.446 365.438 694.86 365.438C698.275 365.438 701.5 366.012 704.535 367.16C707.57 368.308 710.194 369.934 712.407 372.039C714.62 374.144 716.359 376.695 717.623 379.693C718.951 382.626 719.615 385.911 719.615 389.546C719.615 393.182 718.951 396.498 717.623 399.496C716.359 402.43 714.62 404.949 712.407 407.054C710.194 409.158 707.57 410.785 704.535 411.933C701.5 413.081 698.275 413.655 694.86 413.655C691.446 413.655 688.221 413.081 685.186 411.933C682.151 410.785 679.527 409.158 677.314 407.054C675.101 404.949 673.33 402.43 672.002 399.496C670.738 396.498 670.105 393.182 670.105 389.546ZM681.487 389.546C681.487 391.332 681.771 393.054 682.34 394.712C682.973 396.371 683.858 397.838 684.996 399.113C686.198 400.389 687.62 401.409 689.264 402.175C690.908 402.94 692.774 403.323 694.86 403.323C696.947 403.323 698.812 402.94 700.456 402.175C702.1 401.409 703.491 400.389 704.629 399.113C705.831 397.838 706.716 396.371 707.285 394.712C707.917 393.054 708.234 391.332 708.234 389.546C708.234 387.761 707.917 386.039 707.285 384.38C706.716 382.722 705.831 381.255 704.629 379.98C703.491 378.704 702.1 377.684 700.456 376.918C698.812 376.153 696.947 375.77 694.86 375.77C692.774 375.77 690.908 376.153 689.264 376.918C687.62 377.684 686.198 378.704 684.996 379.98C683.858 381.255 682.973 382.722 682.34 384.38C681.771 386.039 681.487 387.761 681.487 389.546Z" fill="black"/>
<path d="M729.797 366.586H740.61V373.761H740.799C741.811 371.593 743.423 369.679 745.637 368.021C747.913 366.299 750.948 365.438 754.742 365.438C761.887 365.438 766.629 368.276 768.969 373.952C770.613 371.019 772.668 368.882 775.134 367.543C777.6 366.14 780.54 365.438 783.955 365.438C786.99 365.438 789.55 365.948 791.637 366.969C793.724 367.989 795.399 369.392 796.664 371.178C797.992 372.964 798.94 375.069 799.509 377.492C800.078 379.852 800.363 382.403 800.363 385.146V412.507H788.981V386.485C788.981 385.082 788.855 383.743 788.602 382.467C788.349 381.128 787.906 379.98 787.274 379.023C786.642 378.002 785.788 377.205 784.713 376.631C783.638 376.057 782.247 375.77 780.54 375.77C778.77 375.77 777.252 376.121 775.987 376.822C774.786 377.46 773.774 378.353 772.952 379.501C772.194 380.585 771.624 381.861 771.245 383.328C770.929 384.731 770.771 386.166 770.771 387.633V412.507H759.389V385.146C759.389 382.276 758.789 380.011 757.587 378.353C756.386 376.631 754.394 375.77 751.612 375.77C749.715 375.77 748.103 376.089 746.775 376.727C745.51 377.365 744.435 378.226 743.55 379.31C742.728 380.394 742.127 381.638 741.748 383.041C741.368 384.444 741.179 385.911 741.179 387.442V412.507H729.797V366.586Z" fill="black"/>
<path d="M807.488 376.344V366.586H816.877V353.288H828.259V366.586H840.779V376.344H828.259V396.435C828.259 398.731 828.67 400.548 829.492 401.888C830.377 403.227 832.084 403.897 834.614 403.897C835.625 403.897 836.732 403.801 837.933 403.61C839.135 403.355 840.083 402.972 840.779 402.462V412.124C839.577 412.698 838.091 413.081 836.321 413.272C834.614 413.527 833.096 413.655 831.768 413.655C828.733 413.655 826.236 413.304 824.275 412.602C822.379 411.965 820.861 410.976 819.723 409.637C818.648 408.234 817.889 406.512 817.446 404.471C817.067 402.43 816.877 400.07 816.877 397.391V376.344H807.488Z" fill="black"/>
<path d="M858.768 393.564C859.148 397.009 860.476 399.687 862.752 401.601C865.028 403.514 867.779 404.471 871.004 404.471C873.849 404.471 876.22 403.897 878.117 402.749C880.077 401.537 881.785 400.038 883.239 398.252L891.396 404.471C888.74 407.787 885.768 410.147 882.48 411.55C879.192 412.953 875.746 413.655 872.142 413.655C868.727 413.655 865.503 413.081 862.468 411.933C859.432 410.785 856.808 409.158 854.595 407.054C852.382 404.949 850.612 402.43 849.284 399.496C848.019 396.498 847.387 393.182 847.387 389.546C847.387 385.911 848.019 382.626 849.284 379.693C850.612 376.695 852.382 374.144 854.595 372.039C856.808 369.934 859.432 368.308 862.468 367.16C865.503 366.012 868.727 365.438 872.142 365.438C875.303 365.438 878.18 366.012 880.773 367.16C883.429 368.244 885.673 369.839 887.507 371.943C889.404 374.048 890.858 376.663 891.87 379.788C892.945 382.85 893.482 386.389 893.482 390.407V393.564H858.768ZM882.101 384.954C882.037 381.574 880.994 378.927 878.971 377.014C876.947 375.037 874.134 374.048 870.529 374.048C867.115 374.048 864.396 375.037 862.373 377.014C860.412 378.991 859.211 381.638 858.768 384.954H882.101ZM875.367 344.774H888.266L874.892 358.55H865.977L875.367 344.774Z" fill="black"/>
<path d="M173.867 525.59L173.867 537.913L228.636 537.913L228.636 525.59" stroke="black"/>
<path d="M82.4697 524.11L82.4697 536.434L91.734 536.434L91.734 524.11" stroke="black"/>
<path d="M47.4482 39.8574L47.4482 27.5339L35.7883 27.5339L35.7883 39.8574" stroke="black"/>
<path d="M127.14 524.11L127.14 536.434L138.458 536.434L138.458 524.11" stroke="black"/>
<path d="M233.426 163.368L245.749 163.368L245.749 151.638L233.426 151.638" stroke="black"/>
<path d="M188.431 549.7H188.503C188.899 549.508 189.367 549.412 189.907 549.412C190.363 549.412 190.825 549.49 191.293 549.646C191.761 549.802 192.181 550.048 192.553 550.384C192.937 550.708 193.249 551.128 193.489 551.644C193.729 552.148 193.849 552.748 193.849 553.444C193.849 554.152 193.729 554.776 193.489 555.316C193.261 555.844 192.949 556.288 192.553 556.648C192.157 557.008 191.695 557.278 191.167 557.458C190.639 557.638 190.075 557.728 189.475 557.728C188.875 557.728 188.311 557.632 187.783 557.44C187.255 557.248 186.793 556.972 186.397 556.612C186.001 556.252 185.683 555.82 185.443 555.316C185.215 554.812 185.101 554.248 185.101 553.624C185.101 553.228 185.131 552.868 185.191 552.544C185.251 552.22 185.335 551.914 185.443 551.626C185.563 551.326 185.701 551.038 185.857 550.762C186.013 550.474 186.187 550.174 186.379 549.862L189.601 544.768H191.635L188.431 549.7ZM186.829 553.57C186.829 553.954 186.889 554.308 187.009 554.632C187.141 554.956 187.321 555.238 187.549 555.478C187.789 555.706 188.071 555.886 188.395 556.018C188.719 556.15 189.079 556.216 189.475 556.216C189.871 556.216 190.231 556.15 190.555 556.018C190.879 555.886 191.155 555.706 191.383 555.478C191.623 555.238 191.803 554.956 191.923 554.632C192.055 554.308 192.121 553.954 192.121 553.57C192.121 553.186 192.055 552.832 191.923 552.508C191.803 552.184 191.623 551.908 191.383 551.68C191.155 551.44 190.879 551.254 190.555 551.122C190.231 550.99 189.871 550.924 189.475 550.924C189.079 550.924 188.719 550.99 188.395 551.122C188.071 551.254 187.789 551.44 187.549 551.68C187.321 551.908 187.141 552.184 187.009 552.508C186.889 552.832 186.829 553.186 186.829 553.57ZM195.697 548.98H197.317V550.204H197.353C197.665 549.748 198.091 549.394 198.631 549.142C199.183 548.89 199.747 548.764 200.323 548.764C200.983 548.764 201.577 548.878 202.105 549.106C202.645 549.334 203.101 549.652 203.473 550.06C203.857 550.468 204.151 550.948 204.355 551.5C204.559 552.04 204.661 552.622 204.661 553.246C204.661 553.882 204.559 554.476 204.355 555.028C204.151 555.568 203.857 556.042 203.473 556.45C203.101 556.846 202.645 557.158 202.105 557.386C201.577 557.614 200.983 557.728 200.323 557.728C199.711 557.728 199.135 557.602 198.595 557.35C198.055 557.086 197.641 556.732 197.353 556.288H197.317V562.588H195.697V548.98ZM200.125 550.276C199.693 550.276 199.303 550.354 198.955 550.51C198.607 550.654 198.313 550.858 198.073 551.122C197.833 551.374 197.647 551.686 197.515 552.058C197.383 552.418 197.317 552.814 197.317 553.246C197.317 553.678 197.383 554.08 197.515 554.452C197.647 554.812 197.833 555.124 198.073 555.388C198.313 555.64 198.607 555.844 198.955 556C199.303 556.144 199.693 556.216 200.125 556.216C200.557 556.216 200.947 556.144 201.295 556C201.643 555.844 201.937 555.64 202.177 555.388C202.417 555.124 202.603 554.812 202.735 554.452C202.867 554.08 202.933 553.678 202.933 553.246C202.933 552.814 202.867 552.418 202.735 552.058C202.603 551.686 202.417 551.374 202.177 551.122C201.937 550.858 201.643 550.654 201.295 550.51C200.947 550.354 200.557 550.276 200.125 550.276ZM209.041 552.958L206.017 548.98H208.105L210.175 552.004L212.209 548.98H214.171L211.255 552.958L214.711 557.512H212.623L210.103 553.93L207.583 557.512H205.585L209.041 552.958Z" fill="black"/>
<path d="M79.0084 542.578L76.6684 544.738L75.6604 543.532L79.2064 540.598H80.7364V553.342H79.0084V542.578ZM85.3744 544.81H86.9944V546.034H87.0304C87.3424 545.578 87.7684 545.224 88.3084 544.972C88.8604 544.72 89.4244 544.594 90.0004 544.594C90.6604 544.594 91.2544 544.708 91.7824 544.936C92.3224 545.164 92.7784 545.482 93.1504 545.89C93.5344 546.298 93.8284 546.778 94.0324 547.33C94.2364 547.87 94.3384 548.452 94.3384 549.076C94.3384 549.712 94.2364 550.306 94.0324 550.858C93.8284 551.398 93.5344 551.872 93.1504 552.28C92.7784 552.676 92.3224 552.988 91.7824 553.216C91.2544 553.444 90.6604 553.558 90.0004 553.558C89.3884 553.558 88.8124 553.432 88.2724 553.18C87.7324 552.916 87.3184 552.562 87.0304 552.118H86.9944V558.418H85.3744V544.81ZM89.8024 546.106C89.3704 546.106 88.9804 546.184 88.6324 546.34C88.2844 546.484 87.9904 546.688 87.7504 546.952C87.5104 547.204 87.3244 547.516 87.1924 547.888C87.0604 548.248 86.9944 548.644 86.9944 549.076C86.9944 549.508 87.0604 549.91 87.1924 550.282C87.3244 550.642 87.5104 550.954 87.7504 551.218C87.9904 551.47 88.2844 551.674 88.6324 551.83C88.9804 551.974 89.3704 552.046 89.8024 552.046C90.2344 552.046 90.6244 551.974 90.9724 551.83C91.3204 551.674 91.6144 551.47 91.8544 551.218C92.0944 550.954 92.2804 550.642 92.4124 550.282C92.5444 549.91 92.6104 549.508 92.6104 549.076C92.6104 548.644 92.5444 548.248 92.4124 547.888C92.2804 547.516 92.0944 547.204 91.8544 546.952C91.6144 546.688 91.3204 546.484 90.9724 546.34C90.6244 546.184 90.2344 546.106 89.8024 546.106ZM98.7183 548.788L95.6943 544.81H97.7823L99.8523 547.834L101.886 544.81H103.848L100.932 548.788L104.388 553.342H102.3L99.7803 549.76L97.2603 553.342H95.2623L98.7183 548.788Z" fill="black"/>
<path d="M32.9088 7.236L30.5688 9.396L29.5608 8.19L33.1068 5.256H34.6368V18H32.9088V7.236ZM39.2748 9.468H40.8948V10.692H40.9308C41.2428 10.236 41.6688 9.882 42.2088 9.63C42.7608 9.378 43.3248 9.252 43.9008 9.252C44.5608 9.252 45.1548 9.366 45.6828 9.594C46.2228 9.822 46.6788 10.14 47.0508 10.548C47.4348 10.956 47.7288 11.436 47.9328 11.988C48.1368 12.528 48.2388 13.11 48.2388 13.734C48.2388 14.37 48.1368 14.964 47.9328 15.516C47.7288 16.056 47.4348 16.53 47.0508 16.938C46.6788 17.334 46.2228 17.646 45.6828 17.874C45.1548 18.102 44.5608 18.216 43.9008 18.216C43.2888 18.216 42.7128 18.09 42.1728 17.838C41.6328 17.574 41.2188 17.22 40.9308 16.776H40.8948V23.076H39.2748V9.468ZM43.7028 10.764C43.2708 10.764 42.8808 10.842 42.5328 10.998C42.1848 11.142 41.8908 11.346 41.6508 11.61C41.4108 11.862 41.2248 12.174 41.0928 12.546C40.9608 12.906 40.8948 13.302 40.8948 13.734C40.8948 14.166 40.9608 14.568 41.0928 14.94C41.2248 15.3 41.4108 15.612 41.6508 15.876C41.8908 16.128 42.1848 16.332 42.5328 16.488C42.8808 16.632 43.2708 16.704 43.7028 16.704C44.1348 16.704 44.5248 16.632 44.8728 16.488C45.2208 16.332 45.5148 16.128 45.7548 15.876C45.9948 15.612 46.1808 15.3 46.3128 14.94C46.4448 14.568 46.5108 14.166 46.5108 13.734C46.5108 13.302 46.4448 12.906 46.3128 12.546C46.1808 12.174 45.9948 11.862 45.7548 11.61C45.5148 11.346 45.2208 11.142 44.8728 10.998C44.5248 10.842 44.1348 10.764 43.7028 10.764ZM52.6187 13.446L49.5947 9.468H51.6827L53.7527 12.492L55.7867 9.468H57.7487L54.8327 13.446L58.2887 18H56.2007L53.6807 14.418L51.1607 18H49.1627L52.6187 13.446Z" fill="black"/>
<path d="M124.589 542.578L122.249 544.738L121.241 543.532L124.787 540.598H126.317V553.342H124.589V542.578ZM130.954 544.81H132.574V546.034H132.61C132.922 545.578 133.348 545.224 133.888 544.972C134.44 544.72 135.004 544.594 135.58 544.594C136.24 544.594 136.834 544.708 137.362 544.936C137.902 545.164 138.358 545.482 138.73 545.89C139.114 546.298 139.408 546.778 139.612 547.33C139.816 547.87 139.918 548.452 139.918 549.076C139.918 549.712 139.816 550.306 139.612 550.858C139.408 551.398 139.114 551.872 138.73 552.28C138.358 552.676 137.902 552.988 137.362 553.216C136.834 553.444 136.24 553.558 135.58 553.558C134.968 553.558 134.392 553.432 133.852 553.18C133.312 552.916 132.898 552.562 132.61 552.118H132.574V558.418H130.954V544.81ZM135.382 546.106C134.95 546.106 134.56 546.184 134.212 546.34C133.864 546.484 133.57 546.688 133.33 546.952C133.09 547.204 132.904 547.516 132.772 547.888C132.64 548.248 132.574 548.644 132.574 549.076C132.574 549.508 132.64 549.91 132.772 550.282C132.904 550.642 133.09 550.954 133.33 551.218C133.57 551.47 133.864 551.674 134.212 551.83C134.56 551.974 134.95 552.046 135.382 552.046C135.814 552.046 136.204 551.974 136.552 551.83C136.9 551.674 137.194 551.47 137.434 551.218C137.674 550.954 137.86 550.642 137.992 550.282C138.124 549.91 138.19 549.508 138.19 549.076C138.19 548.644 138.124 548.248 137.992 547.888C137.86 547.516 137.674 547.204 137.434 546.952C137.194 546.688 136.9 546.484 136.552 546.34C136.204 546.184 135.814 546.106 135.382 546.106ZM144.298 548.788L141.274 544.81H143.362L145.432 547.834L147.466 544.81H149.428L146.512 548.788L149.968 553.342H147.88L145.36 549.76L142.84 553.342H140.842L144.298 548.788Z" fill="black"/>
<path d="M252.982 153.554L250.642 155.714L249.634 154.508L253.18 151.574H254.71V164.318H252.982V153.554ZM259.348 155.786H260.968V157.01H261.004C261.316 156.554 261.742 156.2 262.282 155.948C262.834 155.696 263.398 155.57 263.974 155.57C264.634 155.57 265.228 155.684 265.756 155.912C266.296 156.14 266.752 156.458 267.124 156.866C267.508 157.274 267.802 157.754 268.006 158.306C268.21 158.846 268.312 159.428 268.312 160.052C268.312 160.688 268.21 161.282 268.006 161.834C267.802 162.374 267.508 162.848 267.124 163.256C266.752 163.652 266.296 163.964 265.756 164.192C265.228 164.42 264.634 164.534 263.974 164.534C263.362 164.534 262.786 164.408 262.246 164.156C261.706 163.892 261.292 163.538 261.004 163.094H260.968V169.394H259.348V155.786ZM263.776 157.082C263.344 157.082 262.954 157.16 262.606 157.316C262.258 157.46 261.964 157.664 261.724 157.928C261.484 158.18 261.298 158.492 261.166 158.864C261.034 159.224 260.968 159.62 260.968 160.052C260.968 160.484 261.034 160.886 261.166 161.258C261.298 161.618 261.484 161.93 261.724 162.194C261.964 162.446 262.258 162.65 262.606 162.806C262.954 162.95 263.344 163.022 263.776 163.022C264.208 163.022 264.598 162.95 264.946 162.806C265.294 162.65 265.588 162.446 265.828 162.194C266.068 161.93 266.254 161.618 266.386 161.258C266.518 160.886 266.584 160.484 266.584 160.052C266.584 159.62 266.518 159.224 266.386 158.864C266.254 158.492 266.068 158.18 265.828 157.928C265.588 157.664 265.294 157.46 264.946 157.316C264.598 157.16 264.208 157.082 263.776 157.082ZM272.692 159.764L269.668 155.786H271.756L273.826 158.81L275.86 155.786H277.822L274.906 159.764L278.362 164.318H276.274L273.754 160.736L271.234 164.318H269.236L272.692 159.764Z" fill="black"/>
<path d="M235.024 263.54L247.348 263.54L247.348 198.706L235.024 198.706" stroke="black"/>
<path d="M258.23 226.706H252.074V225.194H260.084V226.67L255.008 237.938H253.064L258.23 226.706ZM262.544 229.406H264.164V230.63H264.2C264.512 230.174 264.938 229.82 265.478 229.568C266.03 229.316 266.594 229.19 267.17 229.19C267.83 229.19 268.424 229.304 268.952 229.532C269.492 229.76 269.948 230.078 270.32 230.486C270.704 230.894 270.998 231.374 271.202 231.926C271.406 232.466 271.508 233.048 271.508 233.672C271.508 234.308 271.406 234.902 271.202 235.454C270.998 235.994 270.704 236.468 270.32 236.876C269.948 237.272 269.492 237.584 268.952 237.812C268.424 238.04 267.83 238.154 267.17 238.154C266.558 238.154 265.982 238.028 265.442 237.776C264.902 237.512 264.488 237.158 264.2 236.714H264.164V243.014H262.544V229.406ZM266.972 230.702C266.54 230.702 266.15 230.78 265.802 230.936C265.454 231.08 265.16 231.284 264.92 231.548C264.68 231.8 264.494 232.112 264.362 232.484C264.23 232.844 264.164 233.24 264.164 233.672C264.164 234.104 264.23 234.506 264.362 234.878C264.494 235.238 264.68 235.55 264.92 235.814C265.16 236.066 265.454 236.27 265.802 236.426C266.15 236.57 266.54 236.642 266.972 236.642C267.404 236.642 267.794 236.57 268.142 236.426C268.49 236.27 268.784 236.066 269.024 235.814C269.264 235.55 269.45 235.238 269.582 234.878C269.714 234.506 269.78 234.104 269.78 233.672C269.78 233.24 269.714 232.844 269.582 232.484C269.45 232.112 269.264 231.8 269.024 231.548C268.784 231.284 268.49 231.08 268.142 230.936C267.794 230.78 267.404 230.702 266.972 230.702ZM275.888 233.384L272.864 229.406H274.952L277.022 232.43L279.056 229.406H281.018L278.102 233.384L281.558 237.938H279.47L276.95 234.356L274.43 237.938H272.432L275.888 233.384Z" fill="black"/>
<path d="M900.457 199.47L912.781 199.47L912.78 115.517L900.457 115.517" stroke="black"/>
<path d="M924.397 149.811H924.325C923.929 150.003 923.461 150.099 922.921 150.099C922.465 150.099 922.003 150.021 921.535 149.865C921.067 149.709 920.641 149.469 920.257 149.145C919.885 148.809 919.579 148.389 919.339 147.885C919.099 147.369 918.979 146.763 918.979 146.067C918.979 145.371 919.093 144.759 919.321 144.231C919.561 143.691 919.879 143.241 920.275 142.881C920.671 142.521 921.133 142.251 921.661 142.071C922.189 141.879 922.753 141.783 923.353 141.783C923.953 141.783 924.517 141.879 925.045 142.071C925.573 142.263 926.035 142.539 926.431 142.899C926.827 143.259 927.139 143.691 927.367 144.195C927.607 144.699 927.727 145.263 927.727 145.887C927.727 146.283 927.697 146.643 927.637 146.967C927.577 147.291 927.487 147.603 927.367 147.903C927.259 148.191 927.127 148.479 926.971 148.767C926.815 149.055 926.641 149.349 926.449 149.649L923.227 154.743H921.193L924.397 149.811ZM925.999 145.941C925.999 145.557 925.933 145.203 925.801 144.879C925.681 144.555 925.501 144.279 925.261 144.051C925.033 143.811 924.757 143.625 924.433 143.493C924.109 143.361 923.749 143.295 923.353 143.295C922.957 143.295 922.597 143.361 922.273 143.493C921.949 143.625 921.667 143.811 921.427 144.051C921.199 144.279 921.019 144.555 920.887 144.879C920.767 145.203 920.707 145.557 920.707 145.941C920.707 146.325 920.767 146.679 920.887 147.003C921.019 147.327 921.199 147.609 921.427 147.849C921.667 148.077 921.949 148.257 922.273 148.389C922.597 148.521 922.957 148.587 923.353 148.587C923.749 148.587 924.109 148.521 924.433 148.389C924.757 148.257 925.033 148.077 925.261 147.849C925.501 147.609 925.681 147.327 925.801 147.003C925.933 146.679 925.999 146.325 925.999 145.941ZM929.575 146.211H931.195V147.435H931.231C931.543 146.979 931.969 146.625 932.509 146.373C933.061 146.121 933.625 145.995 934.201 145.995C934.861 145.995 935.455 146.109 935.983 146.337C936.523 146.565 936.979 146.883 937.351 147.291C937.735 147.699 938.029 148.179 938.233 148.731C938.437 149.271 938.539 149.853 938.539 150.477C938.539 151.113 938.437 151.707 938.233 152.259C938.029 152.799 937.735 153.273 937.351 153.681C936.979 154.077 936.523 154.389 935.983 154.617C935.455 154.845 934.861 154.959 934.201 154.959C933.589 154.959 933.013 154.833 932.473 154.581C931.933 154.317 931.519 153.963 931.231 153.519H931.195V159.819H929.575V146.211ZM934.003 147.507C933.571 147.507 933.181 147.585 932.833 147.741C932.485 147.885 932.191 148.089 931.951 148.353C931.711 148.605 931.525 148.917 931.393 149.289C931.261 149.649 931.195 150.045 931.195 150.477C931.195 150.909 931.261 151.311 931.393 151.683C931.525 152.043 931.711 152.355 931.951 152.619C932.191 152.871 932.485 153.075 932.833 153.231C933.181 153.375 933.571 153.447 934.003 153.447C934.435 153.447 934.825 153.375 935.173 153.231C935.521 153.075 935.815 152.871 936.055 152.619C936.295 152.355 936.481 152.043 936.613 151.683C936.745 151.311 936.811 150.909 936.811 150.477C936.811 150.045 936.745 149.649 936.613 149.289C936.481 148.917 936.295 148.605 936.055 148.353C935.815 148.089 935.521 147.885 935.173 147.741C934.825 147.585 934.435 147.507 934.003 147.507ZM942.918 150.189L939.894 146.211H941.982L944.052 149.235L946.086 146.211H948.048L945.132 150.189L948.588 154.743H946.5L943.98 151.161L941.46 154.743H939.462L942.918 150.189Z" fill="black"/>
<path d="M235.024 478.451L247.348 478.451L247.348 413.072L235.024 413.072" stroke="black"/>
<path d="M259.828 441.614H253.672V440.102H261.682V441.578L256.606 452.846H254.662L259.828 441.614ZM264.142 444.314H265.762V445.538H265.798C266.11 445.082 266.536 444.728 267.076 444.476C267.628 444.224 268.192 444.098 268.768 444.098C269.428 444.098 270.022 444.212 270.55 444.44C271.09 444.668 271.546 444.986 271.918 445.394C272.302 445.802 272.596 446.282 272.8 446.834C273.004 447.374 273.106 447.956 273.106 448.58C273.106 449.216 273.004 449.81 272.8 450.362C272.596 450.902 272.302 451.376 271.918 451.784C271.546 452.18 271.09 452.492 270.55 452.72C270.022 452.948 269.428 453.062 268.768 453.062C268.156 453.062 267.58 452.936 267.04 452.684C266.5 452.42 266.086 452.066 265.798 451.622H265.762V457.922H264.142V444.314ZM268.57 445.61C268.138 445.61 267.748 445.688 267.4 445.844C267.052 445.988 266.758 446.192 266.518 446.456C266.278 446.708 266.092 447.02 265.96 447.392C265.828 447.752 265.762 448.148 265.762 448.58C265.762 449.012 265.828 449.414 265.96 449.786C266.092 450.146 266.278 450.458 266.518 450.722C266.758 450.974 267.052 451.178 267.4 451.334C267.748 451.478 268.138 451.55 268.57 451.55C269.002 451.55 269.392 451.478 269.74 451.334C270.088 451.178 270.382 450.974 270.622 450.722C270.862 450.458 271.048 450.146 271.18 449.786C271.312 449.414 271.378 449.012 271.378 448.58C271.378 448.148 271.312 447.752 271.18 447.392C271.048 447.02 270.862 446.708 270.622 446.456C270.382 446.192 270.088 445.988 269.74 445.844C269.392 445.688 269.002 445.61 268.57 445.61ZM277.486 448.292L274.462 444.314H276.55L278.62 447.338L280.654 444.314H282.616L279.7 448.292L283.156 452.846H281.068L278.548 449.264L276.028 452.846H274.03L277.486 448.292Z" fill="black"/>
</svg>
