<svg width="262" height="87" viewBox="0 0 262 87" fill="none" xmlns="http://www.w3.org/2000/svg">
<path d="M141.647 84.4923C141.352 84.5141 141.133 84.536 140.925 84.536C137.262 84.536 133.599 84.5032 129.948 84.5141C128.231 84.5141 126.656 84.0768 125.323 82.9943C124.535 82.3602 124.098 81.4308 123.967 80.4577C123.759 79.0144 123.628 77.5492 123.628 76.0841C123.595 66.342 123.65 56.5999 123.584 46.8578C123.573 44.8131 123.475 42.7029 122.523 40.8004C121.583 38.9197 120.238 37.5311 118.062 37.0938C115.559 36.5799 113.361 37.4109 111.382 38.7229C109.479 39.9803 107.719 41.4783 105.969 42.9543C101.148 47.0218 96.3695 51.1438 91.5476 55.2113C87.7208 58.4477 83.9376 61.7279 80.0124 64.8222C74.4579 69.1957 68.7942 73.4381 63.1523 77.7023C60.1345 79.9875 56.9199 81.9775 53.5742 83.7597C51.7591 84.7219 49.8894 85.5419 47.8557 85.9137C46.2375 86.2089 44.6193 86.5916 42.9901 86.6572C41.6015 86.7119 40.1911 86.3948 38.7915 86.2198C36.9656 85.9902 35.3583 85.2139 33.8822 84.1861C31.8703 82.7866 30.4708 80.8841 29.5414 78.6426C28.6558 76.4777 28.4043 74.1925 28.4043 71.8745C28.4043 58.4696 28.4043 45.0755 28.4043 31.6706V30.9161C28.6776 30.9052 28.9073 30.8833 29.1369 30.8833C32.253 30.8833 35.3692 30.8286 38.4744 30.9052C39.9505 30.9489 41.4485 31.1129 42.8699 31.4628C44.6084 31.9002 45.7892 33.081 46.0954 34.9179C46.3359 36.3284 46.5874 37.7607 46.5983 39.1931C46.6421 48.9789 46.6202 58.7757 46.6202 68.5616C46.6202 69.4363 46.5546 70.3329 46.6749 71.1966C47.0794 74.3456 48.2275 77.0791 51.2562 78.588C53.0821 79.4955 54.9846 79.2877 56.8434 78.6426C58.3851 78.1069 59.6753 77.1666 60.8452 76.0513C61.042 75.8654 61.1295 75.5483 61.217 75.275C61.2716 75.1001 61.217 74.9032 61.217 74.7064C61.217 60.4486 61.217 46.1908 61.217 31.933C61.217 31.6268 61.217 31.3207 61.217 30.9599C61.4685 30.938 61.6653 30.8942 61.873 30.8942C65.3391 30.8942 68.816 30.8614 72.2821 30.927C73.7035 30.9489 75.1249 31.1348 76.4807 31.7034C78.0005 32.3375 78.8424 33.5184 79.1267 35.0163C79.4001 36.4159 79.4766 37.881 79.4766 39.3134C79.5094 46.4204 79.4875 53.5274 79.4875 60.6235V61.6185C79.8046 61.4436 80.067 61.3561 80.2638 61.1921C83.5768 58.4477 86.8898 55.7142 90.1809 52.937C90.4324 52.7293 90.5745 52.2482 90.5745 51.8983C90.5964 45.2177 90.5964 38.548 90.5964 31.8674V30.9489C90.8369 30.927 91.0338 30.8833 91.2415 30.8833C95.0465 30.8833 98.8515 30.8286 102.646 30.938C104.1 30.9817 105.587 31.2551 106.855 32.0751C108.014 32.8186 108.626 33.9557 108.79 35.3115C108.867 35.891 108.801 36.4815 108.801 37.1266C110.201 36.0113 111.469 34.907 112.836 33.9339C114.99 32.3922 117.308 31.091 119.856 30.3147C121.419 29.8336 123.005 29.4072 124.612 29.1776C126.263 28.948 127.979 28.7621 129.62 28.9589C133.293 29.3854 136.584 30.7849 138.902 33.8355C139.657 34.8195 140.171 36.0004 140.717 37.1156C140.947 37.5749 141.078 37.553 141.417 37.2578C142.5 36.2956 143.571 35.3115 144.719 34.4259C146.644 32.9389 148.754 31.7908 151.006 30.8833C152.832 30.1398 154.724 29.615 156.681 29.44C158.07 29.3088 159.48 29.0902 160.847 29.2323C166.161 29.779 170.239 32.2063 172.448 37.2906C173.279 39.204 173.803 41.1721 173.869 43.2605C173.946 45.6988 174.077 48.137 174.088 50.5753C174.11 61.5967 174.088 72.629 174.121 83.6504C174.121 84.3939 173.902 84.5688 173.202 84.5579C169.539 84.5141 165.876 84.5032 162.224 84.5251C160.453 84.5251 158.802 84.1205 157.479 82.9834C156.878 82.4695 156.44 81.5948 156.222 80.8076C155.894 79.6376 155.675 78.4021 155.664 77.1884C155.62 67.4901 155.631 57.8026 155.631 48.1042C155.631 46.989 155.664 45.8628 155.588 44.7584C155.434 42.4186 154.735 40.2755 153.062 38.5589C151.334 36.7876 149.257 36.4268 146.95 37.1156C144.774 37.7607 143.167 39.204 141.778 40.9206C141.625 41.1065 141.636 41.4455 141.636 41.7188C141.636 55.6158 141.636 69.5238 141.636 83.4208C141.636 83.7488 141.636 84.0768 141.636 84.5032L141.647 84.4923Z" fill="black"/>
<path d="M199.804 55.9436C199.815 58.0429 200.045 59.9673 200.624 61.8589C201.04 63.2037 201.28 64.6142 201.827 65.9044C203.074 68.8784 204.812 71.4916 207.502 73.4379C209.339 74.7609 211.296 75.6793 213.526 75.9417C214.948 76.1058 216.413 76.2916 217.823 76.1604C219.31 76.0183 220.754 75.4935 222.208 75.1326C224.504 74.5641 226.483 73.3176 228.495 72.1805C229.293 71.7322 229.993 71.1089 230.714 70.5841C230.791 70.5951 230.846 70.5841 230.878 70.6169C232.223 71.6119 232.267 71.6338 231.425 73.3395C229.982 76.2588 228.036 78.7736 225.499 80.862C223.378 82.6114 220.961 83.8688 218.49 84.9841C217.452 85.4542 216.293 85.6073 215.188 85.9463C212.717 86.7007 210.17 86.8975 207.6 86.821C206.026 86.7773 204.418 86.7554 202.877 86.4383C201.094 86.0775 199.345 85.4652 197.618 84.8638C193.605 83.4643 190.412 80.8948 187.733 77.6474C186.399 76.0402 185.361 74.247 184.475 72.3773C183.928 71.2292 183.589 69.9718 183.239 68.7363C182.824 67.2602 182.365 65.7623 182.179 64.2534C181.927 62.2197 181.851 60.1532 181.84 58.1085C181.829 56.4903 181.905 54.8393 182.146 53.2429C182.485 51.0124 182.824 48.771 183.731 46.6717C184.431 45.0534 184.989 43.3696 185.864 41.8498C187.46 39.1054 189.472 36.689 192.008 34.71C193.998 33.1573 196.207 32.0311 198.47 31.0034C199.542 30.5113 200.756 30.3473 201.915 30.0412C205.085 29.1993 208.322 29.3305 211.547 29.4945C213.056 29.571 214.576 29.8772 216.03 30.2708C217.802 30.7519 219.551 31.3314 221.235 32.053C222.295 32.5122 223.268 33.2339 224.187 33.9446C225.258 34.7646 226.308 35.6393 227.237 36.6125C229.031 38.4822 230.277 40.7127 231.174 43.14C231.819 44.8894 232.3 46.6826 232.65 48.5195C233.065 50.7063 233.164 52.8931 233.24 55.0908C233.262 55.7905 233.032 55.9545 232.355 55.9545C221.825 55.9327 211.296 55.9436 200.766 55.9436C200.46 55.9436 200.165 55.9436 199.771 55.9436H199.804ZM208.256 53.1117C210.891 53.1117 213.537 53.1117 216.172 53.1117C216.719 53.1117 216.96 52.9477 216.927 52.3792C216.828 50.6407 216.817 48.8912 216.664 47.1528C216.522 45.5455 216.271 43.9491 216.041 42.3528C215.976 41.8717 215.877 41.3796 215.724 40.9204C215.396 39.9473 215.013 38.9851 214.674 38.012C213.986 36.0548 213.045 34.2398 211.482 32.8293C210.137 31.6157 208.54 31.1564 206.835 31.8015C205.709 32.228 204.746 33.0589 204.101 34.0977C203.281 35.4316 202.516 36.8093 201.915 38.2526C201.379 39.5537 201.029 40.9532 200.723 42.3309C200.417 43.7523 200.242 45.1956 200.078 46.6498C199.881 48.4648 199.717 50.2908 199.607 52.1167C199.553 53.0243 199.695 53.1117 200.624 53.1117C203.172 53.1117 205.709 53.1117 208.256 53.1117Z" fill="black"/>
<path d="M0.422711 0.59668C0.761662 0.59668 1.02408 0.59668 1.27556 0.59668C5.14616 0.607614 9.0277 0.61854 12.8983 0.640408C14.44 0.640408 15.9051 0.968435 17.0751 2.05089C17.8951 2.80533 18.2122 3.83312 18.3762 4.90464C18.4309 5.2764 18.409 5.65908 18.409 6.04176C18.409 32.0317 18.409 58.0325 18.409 84.0224V85.0502C18.1138 85.0502 17.8623 85.0502 17.6108 85.0502C13.9261 85.0502 10.2414 85.1267 6.55664 84.9846C4.5776 84.9081 2.59856 84.427 1.4833 82.5026C1.10061 81.8356 0.827266 81.0593 0.706993 80.294C0.116561 76.8607 0.444579 73.3837 0.433645 69.9395C0.400843 47.1751 0.422711 24.4107 0.422711 1.65727V0.59668Z" fill="black"/>
<path d="M260.071 54.435C260.071 60.6564 260.05 66.8778 260.071 73.0992C260.093 76.6199 260.181 80.1516 260.279 83.6723C260.301 84.3283 260.093 84.5142 259.448 84.5142C255.643 84.4705 251.838 84.5579 248.044 84.4158C246.426 84.3611 244.709 84.0331 243.649 82.568C243.08 81.7807 242.588 80.8404 242.391 79.9001C242.118 78.5771 242.074 77.1885 242.074 75.8217C242.052 61.1703 242.063 46.5079 242.063 31.8565C242.063 31.0328 242.486 30.6209 243.332 30.6209C245.781 30.6209 248.23 30.5881 250.679 30.6319C252.396 30.6647 254.123 30.7521 255.84 30.9162C258.3 31.1348 259.995 32.9936 259.995 35.4756C260.017 41.7954 259.995 48.1152 259.995 54.435C260.017 54.435 260.039 54.435 260.06 54.435H260.071Z" fill="black"/>
<path d="M108.778 84.4919C108.537 84.5138 108.33 84.5357 108.122 84.5357C104.273 84.5357 100.424 84.5356 96.5756 84.4919C95.2198 84.481 93.9624 84.0764 92.8143 83.3329C91.9177 82.7534 91.3492 81.9334 91.1633 80.9603C90.879 79.4733 90.6275 77.9425 90.6166 76.4336C90.551 70.9011 90.6057 65.3685 90.5838 59.8359C90.5838 59.3111 90.7478 58.9503 91.1414 58.6332C94.3779 56.0856 97.6143 53.5271 100.84 50.9685C102.01 50.0391 103.387 49.6127 104.842 49.4597C106.755 49.2629 108.811 51.0888 108.822 52.9804C108.843 63.3129 108.843 73.6345 108.843 83.9671C108.843 84.1311 108.811 84.2842 108.789 84.481L108.778 84.4919Z" fill="black"/>
<path d="M250.952 23.4813C245.759 23.5797 241.068 18.9656 241.09 13.6189C241.123 7.62709 245.912 3.53779 251.094 3.55966C256.922 3.59246 261.088 7.91136 261.11 13.6079C261.132 19.053 256.78 23.5578 250.952 23.4703V23.4813Z" fill="black"/>
<path d="M79.4552 68.6708C79.4771 69.0535 79.4989 69.2831 79.4989 69.5018C79.4989 74.2471 79.4989 78.9925 79.5099 83.7378C79.5099 84.3501 79.3677 84.5578 78.7226 84.5469C75.3331 84.5032 71.9327 84.525 68.5431 84.4813C66.6734 84.4485 65.3395 82.2726 65.8753 80.4685C66.3673 78.8175 67.5372 77.8663 68.8055 76.9041C70.8502 75.3515 72.862 73.7442 74.8739 72.1588C76.1641 71.1419 77.4324 70.1251 78.7226 69.1082C78.9085 68.9661 79.1272 68.8567 79.4552 68.6599V68.6708Z" fill="black"/>
</svg>
